<?xml version="1.0" standalone="no"?>
<!DOCTYPE svg PUBLIC "-//W3C//DTD SVG 20010904//EN"
 "http://www.w3.org/TR/2001/REC-SVG-20010904/DTD/svg10.dtd">
<svg version="1.0" xmlns="http://www.w3.org/2000/svg"
 width="293.000000pt" height="293.000000pt" viewBox="0 0 293.000000 293.000000"
 preserveAspectRatio="xMidYMid meet">
<metadata>
Created by potrace 1.14, written by Peter Selinger 2001-2017
</metadata>
<g transform="translate(0.000000,293.000000) scale(0.100000,-0.100000)"
fill="#000000" stroke="none">
<path d="M617 2812 c-15 -16 -24 -32 -20 -36 5 -4 3 -6 -2 -4 -6 2 -30 -17
-54 -42 -24 -25 -79 -82 -122 -126 l-79 -81 80 -109 c44 -60 88 -119 98 -131
9 -12 24 -31 32 -43 41 -58 311 -425 319 -433 6 -6 67 77 163 224 85 129 157
239 161 246 5 7 -97 116 -268 287 -151 152 -277 276 -278 276 -2 0 -15 -13
-30 -28z"/>
<path d="M2190 2752 c-47 -47 -84 -90 -83 -94 2 -4 -1 -7 -5 -5 -15 4 -373
-364 -366 -376 4 -7 72 -110 151 -231 80 -120 147 -224 150 -232 11 -29 -1
-43 226 266 70 96 136 186 145 198 17 23 64 87 80 107 4 6 25 35 47 65 22 30
43 58 48 61 5 4 -33 51 -86 105 -52 55 -121 127 -154 162 -33 34 -61 62 -64
62 -2 -1 -42 -40 -89 -88z"/>
<path d="M1375 2292 c-13 -2 -39 -32 -72 -83 l-51 -81 45 -127 c25 -69 48
-136 50 -148 3 -13 9 -23 14 -23 4 0 6 -15 4 -32 -2 -18 -6 -109 -10 -203 -3
-93 -7 -213 -10 -265 -10 -222 -16 -355 -21 -505 -3 -88 -7 -189 -9 -225 -2
-36 -5 -111 -6 -166 l-2 -102 63 -61 c34 -34 67 -61 71 -61 5 0 9 -7 9 -15 0
-26 14 -17 93 63 l78 79 -5 149 c-4 82 -9 210 -12 284 -3 74 -7 196 -9 270 -2
74 -7 191 -10 260 -2 69 -7 197 -11 285 -3 88 -7 178 -8 200 -1 24 9 68 25
110 14 39 39 107 54 152 l28 83 -54 82 -55 81 -84 1 c-47 1 -94 0 -105 -2z"/>
</g>
</svg>
